<?xml version="1.0" standalone="no"?>
<!DOCTYPE svg PUBLIC "-//W3C//DTD SVG 20010904//EN"
 "http://www.w3.org/TR/2001/REC-SVG-20010904/DTD/svg10.dtd">
<svg version="1.0" xmlns="http://www.w3.org/2000/svg"
 width="576.000000pt" height="576.000000pt" viewBox="0 0 576.000000 576.000000"
 preserveAspectRatio="xMidYMid meet">
<metadata>
Created by potrace 1.11, written by Peter Selinger 2001-2013
</metadata>
<g transform="translate(0.000000,576.000000) scale(0.100000,-0.100000)"
fill="#000000" stroke="none">
<path d="M1613 4878 c-15 -16 -19 -45 -25 -157 -5 -100 -12 -151 -27 -191 -14
-37 -18 -66 -14 -90 9 -51 52 -142 77 -163 11 -10 15 -16 9 -12 -8 4 -5 -13 8
-42 27 -62 34 -162 19 -238 -7 -33 -13 -70 -12 -82 0 -13 -4 -21 -9 -18 -10 7
-29 -28 -29 -54 0 -12 5 -21 11 -21 7 0 9 -9 6 -22 -6 -23 33 -131 59 -159 8
-9 17 -31 19 -49 5 -37 69 -127 118 -164 28 -21 344 -176 359 -176 3 0 3 21 1
48 -3 26 0 65 6 87 l11 40 -5 -42 c-3 -28 -1 -43 8 -46 9 -3 9 -9 -2 -29 -15
-28 -8 -48 15 -48 8 0 12 -4 9 -10 -3 -5 -2 -10 2 -10 5 0 9 -9 9 -20 0 -20
-1 -20 -19 2 -15 18 -16 19 -8 3 14 -29 81 -121 81 -112 0 10 -32 60 -44 68
-5 4 -5 12 -2 18 10 15 36 14 37 -1 2 -34 9 -52 30 -74 21 -22 19 -29 -5 -25
-5 1 -4 -5 4 -13 17 -21 30 -20 30 2 0 12 6 8 19 -13 20 -33 18 -45 -7 -44
-11 0 -12 3 -4 6 13 5 17 23 4 23 -4 0 -18 -21 -31 -46 -21 -38 -22 -47 -10
-55 8 -5 17 -9 22 -9 4 0 7 -4 7 -9 0 -5 -9 -7 -20 -4 -16 4 -20 0 -20 -23 0
-26 1 -27 14 -8 12 16 17 17 28 6 11 -11 10 -13 -2 -10 -19 4 -25 -38 -8 -60
7 -9 -5 -3 -26 13 -34 26 -37 27 -25 7 8 -12 28 -29 46 -37 37 -18 43 -26 13
-18 -15 4 -20 0 -20 -13 0 -13 3 -15 8 -7 4 6 7 -6 7 -28 0 -38 -8 -51 -18
-26 -3 6 -6 1 -6 -12 -1 -17 3 -22 14 -17 9 3 15 0 15 -10 0 -8 7 -17 15 -20
8 -4 15 -11 15 -18 1 -13 67 -57 73 -48 2 4 3 2 1 -4 -1 -6 18 -29 42 -50 24
-21 61 -54 81 -72 22 -20 43 -30 52 -27 9 3 12 3 8 -1 -4 -4 -2 -13 4 -21 6
-7 9 -13 5 -13 -3 0 2 -8 12 -18 9 -10 26 -16 37 -14 11 3 17 2 13 -3 -9 -10
12 -30 40 -39 12 -4 22 -12 22 -17 0 -6 4 -8 9 -4 5 3 12 1 15 -4 7 -11 51
-14 186 -10 143 4 258 2 298 -5 26 -4 39 1 66 25 58 51 108 41 56 -11 -11 -11
-18 -20 -15 -20 3 0 -3 -9 -13 -21 -22 -26 -77 -51 -122 -54 -20 -2 -61 -12
-93 -23 -41 -13 -60 -16 -68 -8 -9 8 -10 7 -4 -3 6 -10 4 -13 -7 -8 -9 3 -21
0 -27 -6 -6 -6 -11 -7 -11 -3 0 5 -7 3 -15 -4 -10 -9 -15 -9 -15 -1 0 6 -4 11
-10 11 -5 0 -7 -6 -5 -12 4 -9 -8 -13 -41 -12 -82 1 -94 -4 -87 -37 4 -19 1
-29 -6 -29 -7 0 -10 8 -7 18 3 9 1 24 -4 32 -9 13 -11 13 -20 0 -5 -8 -9 -19
-9 -25 0 -5 3 -4 6 3 2 6 9 10 13 7 5 -3 7 -12 4 -19 -10 -26 18 -29 40 -5 11
14 18 20 14 15 -13 -17 -9 -26 10 -19 14 6 15 4 4 -9 -10 -13 -10 -17 0 -21
10 -4 10 -8 -2 -17 -13 -10 -13 -11 3 -6 20 6 24 -19 5 -27 -9 -4 -8 -6 2 -6
8 0 26 6 40 14 33 19 50 18 26 0 -15 -11 -16 -15 -5 -15 8 0 20 5 27 12 7 7
12 8 12 4 0 -4 -8 -15 -18 -24 -10 -10 -12 -13 -5 -8 13 8 18 -8 14 -42 -1 -6
4 -13 11 -13 37 -5 54 -3 66 5 8 6 12 3 12 -8 0 -9 -6 -16 -12 -16 -9 0 -9 -3
1 -9 9 -6 23 -5 38 2 24 10 31 27 12 27 -5 0 -7 4 -4 10 11 18 33 -14 31 -44
-2 -27 16 -56 35 -56 5 0 9 5 9 11 0 5 4 8 8 5 13 -8 53 24 46 36 -4 7 -2 8 4
4 7 -4 12 -2 12 4 0 6 5 8 12 4 6 -4 9 -3 5 2 -3 5 0 16 6 25 12 16 18 19 37
19 6 0 10 7 10 15 0 8 4 14 9 13 5 -2 18 3 28 9 10 7 50 34 88 59 92 62 184
114 200 114 19 0 66 40 60 51 -4 5 -1 9 5 9 6 0 10 6 8 14 -2 8 6 22 17 30 16
13 17 17 6 25 -15 10 -1 23 21 18 7 -2 10 -2 6 0 -14 8 -8 21 11 26 11 3 22
-1 25 -9 8 -21 -4 -86 -24 -124 -20 -40 -33 -137 -19 -145 5 -4 9 -14 9 -24 0
-10 11 -26 25 -35 15 -10 22 -22 19 -31 -4 -10 0 -15 11 -15 12 0 15 -5 11
-16 -4 -10 -1 -14 6 -11 7 2 13 12 13 23 0 12 7 18 16 16 9 -1 28 9 43 23 15
14 34 25 43 25 14 0 14 2 -3 15 -19 15 -19 16 1 13 12 -2 19 2 17 10 -2 10 2
10 20 1 13 -6 20 -8 16 -4 -4 5 -3 14 3 22 13 15 33 18 25 4 -4 -5 3 -7 15 -4
12 4 25 0 30 -8 6 -9 7 -4 3 16 -7 27 -6 29 9 17 16 -14 55 -2 50 15 -3 10 84
11 113 1 12 -3 25 -4 29 0 4 4 11 8 16 8 5 1 14 2 19 3 6 0 10 10 10 20 0 10
7 21 15 25 10 3 15 -1 15 -12 0 -13 2 -14 9 -4 4 7 14 12 22 10 8 -2 13 4 13
14 -1 10 2 15 7 12 5 -3 9 -1 9 3 0 5 9 9 20 10 13 1 18 -2 14 -9 -9 -15 15 0
42 26 12 11 34 21 50 23 16 2 35 11 42 20 6 9 12 12 12 7 0 -16 41 -9 55 9 9
13 14 14 25 4 10 -9 11 -9 6 1 -4 7 -1 12 9 12 9 0 27 7 41 16 13 9 27 14 31
11 7 -8 33 18 33 35 0 10 2 10 9 -1 7 -11 10 -9 16 8 3 11 11 21 17 21 5 0 7
7 4 16 -3 8 -2 12 4 9 15 -9 29 37 19 57 -10 18 4 33 21 23 6 -3 7 1 4 10 -5
11 0 18 14 22 18 4 31 29 32 58 0 6 -9 11 -20 12 -21 2 -36 -29 -24 -49 5 -8
2 -9 -9 -5 -11 4 -22 -3 -33 -23 -35 -59 -85 -55 -118 9 -13 25 -25 29 -124
49 -97 19 -212 64 -212 83 0 12 43 18 59 8 12 -8 10 -8 -9 -3 -24 6 -24 6 -5
-9 23 -17 35 -13 35 11 1 15 2 15 15 -2 11 -14 15 -16 15 -5 0 12 2 12 10 -1
8 -13 10 -12 10 3 0 9 5 17 10 17 6 0 10 -4 10 -10 0 -5 8 -10 18 -10 13 0 14
2 3 9 -11 7 -11 9 0 13 11 4 10 10 -5 26 -10 12 -23 19 -27 16 -5 -3 -9 2 -9
10 0 9 -4 16 -9 16 -14 0 -19 49 -6 60 6 5 15 6 19 2 4 -4 6 0 4 8 -2 10 4 14
20 13 12 -2 22 0 22 2 0 3 -10 10 -22 15 -18 7 -19 9 -5 9 9 1 17 6 17 11 0 6
6 10 13 10 8 0 14 6 15 13 2 31 9 49 21 57 8 4 10 13 6 20 -5 9 -3 10 11 2 15
-7 24 -5 39 11 11 11 14 17 8 13 -18 -10 -16 9 2 24 12 10 13 16 3 28 -11 13
-11 14 2 7 23 -15 38 -14 44 1 3 8 12 11 22 7 12 -4 15 -3 10 5 -4 7 -19 10
-34 7 -15 -3 -21 -2 -14 1 6 3 9 11 5 17 -4 7 0 8 11 4 14 -6 16 -3 11 13 -8
25 15 58 38 54 9 -1 30 10 45 25 31 31 62 46 62 29 0 -7 5 -6 15 2 13 11 15
10 10 -6 -4 -10 1 -7 10 9 16 28 12 53 -6 41 -6 -3 -10 0 -8 7 1 8 1 21 0 29
-1 13 -2 13 -11 0 -7 -11 -10 -11 -10 -2 0 7 -5 10 -10 7 -6 -4 -13 7 -16 24
-4 17 -10 28 -15 25 -5 -3 -7 1 -4 8 5 12 -46 89 -100 152 -24 27 -26 28 -93
21 -38 -4 -99 -8 -136 -9 -36 -2 -70 -6 -73 -10 -10 -10 17 -26 45 -26 15 0
22 -6 22 -20 0 -13 5 -18 15 -14 8 4 12 10 9 15 -3 5 4 9 16 9 12 0 19 -4 16
-9 -4 -5 6 -19 21 -30 22 -16 25 -23 14 -30 -11 -7 -11 -9 0 -14 11 -4 11 -6
1 -6 -10 -1 -10 -4 0 -15 7 -8 17 -12 22 -9 4 3 2 -5 -6 -18 -8 -13 -14 -39
-13 -56 2 -18 -1 -31 -5 -28 -4 3 -10 -2 -14 -10 -3 -8 -1 -15 3 -15 5 0 12
-7 15 -16 3 -8 2 -13 -3 -10 -4 3 -13 -6 -20 -20 -7 -17 -17 -24 -27 -20 -10
4 -18 -3 -24 -20 -7 -16 -14 -23 -22 -18 -7 4 -5 -2 6 -14 14 -17 16 -25 7
-35 -6 -8 -7 -17 -3 -21 4 -4 0 -6 -8 -4 -9 2 -15 -4 -15 -16 0 -11 -6 -21
-14 -24 -8 -3 -11 0 -7 6 3 6 2 13 -4 17 -5 3 -10 2 -10 -4 0 -5 -15 -24 -32
-42 -18 -18 -28 -30 -22 -26 12 7 29 -21 19 -31 -3 -3 -5 0 -5 6 0 7 -4 12
-10 12 -5 0 -10 -7 -10 -15 0 -8 -5 -15 -11 -15 -5 0 -8 3 -5 8 2 4 -1 14 -7
23 -10 13 -18 14 -37 6 -40 -16 -53 -17 -69 -4 -8 7 -12 8 -9 2 3 -5 -5 -20
-18 -33 -13 -12 -24 -18 -24 -13 0 5 4 13 10 16 6 3 10 11 10 16 0 6 -7 3 -16
-5 -22 -22 -43 -20 -54 7 -5 12 -9 17 -9 10 -1 -13 -41 -5 -41 9 0 5 -5 6 -10
3 -6 -4 -8 -11 -5 -16 4 -5 1 -9 -4 -9 -6 0 -11 7 -11 15 0 21 -18 19 -23 -2
-4 -14 -5 -14 -6 3 -1 26 -45 38 -62 18 -6 -8 -16 -14 -22 -14 -5 0 -3 8 6 18
18 20 23 37 8 27 -5 -3 -11 3 -13 12 -3 15 -5 14 -10 -5 -3 -12 -2 -20 3 -16
5 3 9 1 9 -5 0 -19 -19 -21 -29 -4 -6 10 -11 12 -11 5 0 -7 9 -20 19 -29 11
-9 18 -20 15 -25 -3 -4 -1 -8 4 -8 5 0 14 12 21 27 9 20 15 24 21 14 4 -8 13
-10 20 -6 9 6 11 4 6 -4 -5 -7 -14 -10 -22 -7 -18 7 -18 1 3 -30 12 -19 18
-22 24 -12 7 10 9 9 9 -3 0 -9 -7 -19 -15 -23 -9 -3 -15 0 -15 9 0 10 -6 12
-17 8 -16 -6 -16 -5 -4 11 13 16 12 17 -11 11 -15 -4 -29 -2 -32 4 -4 6 -19
11 -33 11 -18 0 -24 4 -19 15 3 8 1 15 -4 15 -6 0 -10 -6 -10 -12 0 -7 -7 -2
-16 11 -16 22 -15 26 4 62 21 38 21 39 1 29 -11 -6 -18 -14 -15 -18 2 -4 -2
-16 -10 -27 -8 -10 -14 -17 -15 -14 -6 42 -6 60 2 64 5 4 6 -2 2 -12 -6 -17
-5 -17 15 1 17 14 19 22 11 32 -6 8 -15 11 -20 8 -16 -10 -9 39 8 58 15 17 15
20 3 28 -8 6 -10 10 -4 10 5 0 19 7 30 16 18 15 18 15 -2 5 -19 -9 -22 -7 -21
14 0 18 5 25 19 25 15 0 18 4 13 18 -4 9 -8 22 -9 27 -1 6 -5 15 -9 21 -4 8 1
11 17 10 13 0 22 -4 19 -8 -7 -13 12 -9 25 4 9 9 12 9 12 -2 0 -7 3 -10 6 -7
9 9 -16 38 -27 31 -5 -3 -6 2 -3 10 3 9 12 12 21 9 14 -5 15 0 10 30 -3 22 -1
39 5 43 7 5 8 2 3 -6 -4 -7 -2 -16 6 -21 20 -12 31 13 13 32 -13 15 -13 17 0
22 9 4 18 1 22 -5 4 -7 3 -8 -4 -4 -7 4 -12 2 -12 -3 0 -6 5 -12 10 -12 6 -1
16 -2 23 -3 6 -1 11 -8 9 -14 -2 -10 3 -10 17 -3 14 8 22 7 30 -3 6 -7 8 -16
4 -19 -3 -4 -1 -7 6 -7 6 0 16 10 22 23 9 21 9 20 6 -5 -6 -43 12 -22 19 22 4
22 10 37 15 34 5 -3 9 2 9 10 0 19 16 21 24 4 3 -7 3 -2 0 12 -4 14 -3 22 1
18 5 -4 14 -3 21 3 17 14 30 -12 19 -38 -5 -14 -2 -13 14 4 11 12 29 24 41 28
31 10 28 19 -24 63 -34 28 -113 3 -84 -26 9 -9 9 -12 1 -12 -6 0 -13 5 -15 11
-3 8 -14 7 -35 -5 -20 -10 -34 -12 -38 -6 -3 6 -15 10 -26 10 -11 0 -45 9 -76
20 -71 25 -82 25 -76 1 5 -21 4 -22 -82 -85 -40 -29 -74 -46 -103 -50 -59 -8
-82 -22 -82 -51 0 -26 -46 -79 -60 -70 -5 3 -12 -5 -16 -19 -3 -13 -12 -27
-21 -30 -8 -3 -13 -14 -11 -24 1 -10 -10 -31 -25 -47 -15 -17 -27 -34 -27 -39
0 -5 -10 -28 -21 -52 -14 -27 -27 -40 -35 -37 -10 4 -12 0 -8 -11 4 -10 1 -16
-9 -16 -8 0 -18 -10 -21 -22 -6 -21 -8 -21 -14 -5 -6 14 -11 7 -20 -29 -11
-39 -15 -44 -27 -34 -13 11 -14 10 -10 -2 6 -14 -21 -46 -30 -36 -3 2 1 24 9
49 8 24 22 71 32 104 9 33 41 107 71 165 54 107 62 130 41 130 -6 0 -8 3 -5 6
4 4 13 1 22 -6 11 -9 15 -9 15 -1 0 7 14 24 31 39 30 25 49 39 145 103 21 14
55 31 75 38 20 6 47 23 59 36 13 14 31 25 40 25 21 0 40 20 40 42 0 11 10 20
28 23 15 4 41 14 57 23 36 20 234 22 330 4 33 -7 96 -17 140 -22 44 -6 97 -13
118 -16 35 -4 37 -3 33 18 -6 25 -17 121 -21 182 -3 40 -41 135 -60 148 -5 4
-7 8 -3 8 10 0 -17 68 -76 193 -25 53 -46 101 -46 106 0 23 -102 93 -116 78
-3 -3 -15 4 -26 15 -11 11 -22 17 -25 14 -3 -2 7 -17 21 -31 14 -14 26 -23 26
-19 0 3 7 1 15 -6 9 -7 14 -19 11 -27 -3 -7 -1 -13 3 -13 5 0 14 -14 20 -32
20 -58 45 -108 53 -108 4 0 5 -7 2 -15 -4 -8 -2 -15 4 -15 5 0 19 -21 31 -47
12 -27 31 -61 41 -78 23 -34 40 -72 40 -86 0 -5 5 -9 11 -9 6 0 9 -7 6 -15 -4
-8 -2 -17 4 -20 5 -4 7 -11 4 -16 -4 -5 -2 -9 3 -9 4 0 8 -32 7 -72 -2 -106
-23 -103 -84 12 -13 25 -27 47 -31 50 -4 3 -25 43 -47 90 -41 85 -86 221 -98
295 -8 50 -32 88 -51 81 -8 -3 -14 -1 -14 5 0 6 -4 7 -10 4 -5 -3 -22 1 -38 9
-16 8 -32 12 -36 9 -3 -4 -6 0 -6 7 0 7 -3 11 -6 8 -3 -4 -17 0 -31 7 -15 8
-30 12 -35 9 -4 -3 -8 0 -8 6 0 6 -5 8 -12 4 -8 -5 -9 -2 -4 11 5 15 4 16 -9
5 -9 -7 -15 -9 -13 -4 2 5 -1 11 -7 13 -5 3 -19 13 -29 23 -10 9 -22 16 -25
14 -3 -2 -12 2 -19 10 -7 8 -9 14 -5 15 4 1 -3 4 -17 8 -16 5 -24 13 -22 24 2
10 -4 17 -13 17 -8 0 -15 5 -15 10 0 6 -18 27 -40 49 -22 21 -40 43 -40 48 0
6 -12 9 -27 8 -22 -1 -30 -8 -39 -34 -8 -26 -12 -30 -17 -17 -6 14 -15 16 -59
10 -29 -4 -57 -11 -63 -16 -6 -5 0 -7 15 -5 15 2 30 -3 37 -12 11 -14 12 -14
13 -1 0 13 1 13 11 0 9 -12 10 -11 6 6 -3 13 1 21 9 21 7 0 11 -4 9 -8 -8 -12
27 -20 40 -9 15 12 26 3 18 -16 -4 -10 3 -14 21 -14 17 0 26 -5 26 -16 0 -8 4
-13 9 -10 4 3 46 -33 92 -80 71 -72 207 -174 233 -174 4 0 27 -14 52 -30 24
-17 44 -26 44 -19 0 7 8 4 21 -7 24 -22 48 -60 30 -50 -6 4 -11 0 -11 -9 0
-11 5 -15 14 -12 13 5 26 -30 27 -75 0 -10 4 -18 9 -18 4 0 7 -11 6 -25 0 -14
-6 -23 -12 -21 -6 2 -18 -1 -25 -7 -11 -10 -11 -9 -1 4 11 15 7 29 -8 29 -14
0 -5 -46 12 -61 23 -21 23 -30 1 -22 -10 3 -15 2 -10 -2 4 -5 -1 -17 -10 -27
-14 -15 -14 -19 -3 -16 8 2 18 8 22 13 5 6 8 6 8 -1 0 -6 -15 -22 -34 -35 -19
-12 -32 -28 -29 -35 2 -7 0 -15 -6 -19 -6 -3 -11 2 -12 12 0 10 -9 -2 -20 -25
-11 -25 -24 -42 -31 -40 -18 6 -31 90 -15 100 9 5 7 8 -4 8 -20 0 -31 47 -17
74 7 13 7 16 0 12 -11 -7 -16 12 -27 109 -3 28 -10 52 -15 53 -6 2 -8 7 -5 12
3 5 -4 11 -15 15 -11 3 -20 13 -20 21 0 8 -4 12 -10 9 -6 -3 -7 1 -4 9 4 10 1
16 -7 16 -20 1 -71 48 -64 60 3 6 1 10 -4 10 -6 0 -11 6 -11 13 0 8 -9 22 -20
32 -11 10 -18 20 -16 22 2 2 -12 21 -30 41 -21 22 -33 44 -30 55 2 9 0 14 -5
11 -5 -3 -15 7 -22 23 -13 30 -26 36 -72 34 -16 -1 -40 -2 -52 -2 -13 -1 -23
-5 -23 -10 0 -6 -10 -5 -21 2 -17 9 -23 8 -30 -2 -7 -12 -9 -12 -9 0 0 8 -3
11 -7 8 -3 -4 -17 0 -31 9 -13 8 -26 13 -30 10 -3 -3 0 -6 6 -6 7 0 12 -4 12
-8 0 -5 -7 -9 -15 -9 -14 0 -19 10 -16 29 1 9 -62 -24 -71 -37 -4 -5 -8 -6 -8
-1 0 5 -6 3 -13 -3 -8 -6 -17 -8 -20 -4 -4 3 -7 1 -7 -6 0 -7 -4 -9 -10 -6 -5
3 -10 2 -10 -4 0 -5 8 -12 18 -14 14 -4 14 -6 -5 -12 -12 -4 -24 -12 -26 -19
-2 -6 -3 -3 -2 6 2 10 -1 21 -6 24 -15 9 -10 51 7 68 8 9 26 16 39 16 13 0 25
4 27 10 2 8 28 16 61 19 4 1 7 11 7 24 0 17 2 19 9 7 6 -8 7 -19 5 -25 -3 -5
2 -1 10 9 9 11 16 14 16 8 0 -7 5 -12 11 -12 7 0 9 9 5 23 -5 23 3 32 64 64
14 7 19 13 13 13 -20 0 -15 17 6 23 15 3 17 0 13 -17 -5 -20 -5 -20 11 -4 22
21 22 38 0 39 -13 0 -14 2 -4 6 19 8 50 40 44 46 -2 3 5 8 16 12 21 6 29 25
11 25 -5 0 -7 7 -3 16 5 13 7 13 14 2 8 -11 10 -11 18 1 6 9 11 10 15 2 4 -6
0 -14 -8 -17 -9 -3 -16 -10 -16 -16 0 -5 4 -6 10 -3 15 9 52 -15 46 -31 -3 -7
0 -17 7 -21 7 -5 12 -15 12 -23 0 -8 9 -16 20 -17 19 -3 19 -3 1 5 -14 6 -16
11 -8 16 9 6 7 18 -9 46 -12 22 -27 36 -32 33 -6 -4 -8 0 -5 8 3 8 -5 22 -20
33 -14 11 -22 14 -18 7 5 -8 0 -10 -18 -7 -33 6 -104 -24 -111 -46 -4 -10 -14
-15 -26 -13 -14 3 -19 0 -16 -9 6 -14 -20 -15 -42 -2 -8 5 -17 3 -22 -5 -7
-12 -10 -12 -18 -1 -7 11 -9 11 -14 -2 -4 -9 -13 -16 -22 -16 -8 0 -15 -7 -15
-15 0 -8 -5 -15 -11 -15 -6 0 -8 -7 -5 -16 4 -10 2 -13 -6 -8 -7 5 -9 0 -6
-14 4 -15 2 -19 -8 -15 -8 3 -14 -1 -14 -11 0 -9 -4 -15 -10 -14 -10 3 -25
-22 -85 -142 -21 -41 -42 -76 -46 -78 -5 -2 -9 -8 -9 -14 0 -5 -9 -21 -20 -35
-11 -14 -20 -29 -20 -34 0 -16 48 13 61 37 10 20 15 22 25 12 23 -24 22 -70
-1 -61 -9 3 -15 2 -13 -3 5 -18 -24 -56 -38 -50 -13 5 -19 -5 -15 -26 2 -13
-17 -9 -22 5 -2 6 -4 0 -3 -15 0 -14 4 -24 9 -21 14 9 7 -7 -14 -28 -22 -22
-37 -20 -23 3 10 16 13 88 3 88 -13 0 -60 -53 -56 -64 6 -16 -26 -101 -45
-120 -9 -9 -24 -16 -33 -16 -11 0 -15 -5 -12 -14 6 -15 -15 -39 -27 -31 -3 3
-2 -1 4 -7 16 -20 11 -29 -9 -17 -15 10 -17 18 -9 48 5 20 12 46 15 58 3 11
14 23 24 26 10 3 19 11 19 19 0 10 -3 9 -10 -2 -13 -21 -12 -6 2 25 6 14 15
26 20 26 4 1 13 3 18 4 6 1 13 3 17 4 4 0 2 6 -5 13 -16 16 -15 28 2 28 7 0
21 15 30 33 8 17 16 26 16 20 0 -15 30 -18 30 -3 0 6 -5 10 -11 10 -6 0 -3 7
5 16 9 8 21 24 26 34 6 11 16 17 24 14 18 -7 29 25 15 42 -16 20 -30 17 -22
-3 6 -15 5 -15 -8 -3 -22 20 -22 50 -1 44 14 -5 14 -4 -1 6 -10 6 -25 9 -34 6
-11 -5 -14 -2 -9 10 3 8 6 18 6 20 0 3 4 3 9 0 5 -3 14 1 21 9 10 12 10 18 1
29 -10 12 -8 14 11 10 13 -2 17 -2 11 2 -18 8 -16 33 2 40 25 10 17 20 -22 32
-26 8 -39 8 -42 1 -1 -5 -9 -2 -16 8 -17 23 -40 6 -24 -17 9 -12 10 -12 5 3
-3 11 -2 16 4 12 15 -9 12 -26 -7 -48 -10 -11 -12 -17 -6 -13 9 5 11 2 7 -8
-3 -8 -12 -12 -19 -10 -7 3 -22 -5 -34 -17 -12 -13 -21 -20 -21 -16 0 4 -11 2
-24 -3 -15 -5 -27 -5 -35 3 -6 6 -11 8 -11 5 0 -4 7 -14 16 -22 14 -15 14 -16
0 -16 -9 0 -16 -7 -16 -15 0 -16 -12 -20 -24 -8 -11 11 -36 12 -36 1 0 -6 -6
-8 -14 -5 -8 3 -17 -1 -20 -9 -3 -8 -14 -14 -25 -14 -14 0 -19 -5 -15 -15 4
-11 0 -15 -16 -15 -20 0 -22 -4 -16 -32 3 -17 3 -29 0 -25 -8 7 -44 -36 -44
-52 0 -6 -5 -11 -11 -11 -6 0 -9 -6 -6 -13 2 -6 -3 -19 -11 -27 -14 -13 -15
-12 -8 5 5 15 4 17 -4 9 -13 -13 -2 -46 13 -37 6 3 7 1 3 -6 -4 -6 -11 -9 -16
-6 -5 3 -13 -14 -18 -37 -6 -33 -8 -16 -8 78 1 93 4 120 14 117 6 -3 12 0 12
5 0 6 5 23 12 39 6 15 10 37 9 49 -1 11 8 29 20 40 22 19 22 19 10 -3 -6 -12
-11 -28 -10 -35 0 -7 4 -3 9 10 6 12 18 22 30 22 11 0 20 5 20 11 0 5 -4 7
-10 4 -5 -3 -10 -1 -10 5 0 7 7 9 15 6 8 -3 23 -9 33 -12 14 -5 15 -4 2 5 -13
9 -12 11 5 11 18 1 18 2 -2 10 -13 5 -23 12 -23 15 0 4 4 4 9 1 5 -3 20 3 32
13 22 18 23 20 6 27 -11 4 -23 1 -30 -6 -10 -10 -8 -11 8 -6 16 6 18 5 8 -5
-10 -10 -17 -8 -34 10 -19 20 -19 22 -3 19 14 -2 18 2 16 17 -3 18 -2 18 10 4
15 -20 58 -35 58 -21 0 5 10 13 23 17 19 6 17 8 -18 15 -55 12 -129 12 -158 1
-30 -12 -43 -44 -46 -113 -1 -27 -13 -23 -98 35 -87 58 -140 83 -195 92 -38 6
-108 55 -170 119 -36 37 -54 44 -60 25 -2 -7 -26 0 -63 18 -93 47 -105 49
-105 19 0 -14 -5 -26 -11 -26 -6 0 -42 19 -81 42 -60 35 -73 40 -89 29 -16 -9
-34 -8 -87 4 -37 9 -75 18 -84 19 -9 2 -25 -5 -35 -16z m2077 -63 c-9 -10 -9
-15 -1 -15 6 0 11 -5 11 -11 0 -6 -7 -8 -16 -5 -8 3 -12 2 -9 -4 3 -6 2 -10
-4 -10 -5 0 -15 8 -20 18 -9 15 -10 15 -11 -4 0 -12 -10 -26 -22 -32 -13 -6
-17 -11 -10 -11 6 -1 12 -6 12 -12 0 -14 -18 -2 -30 21 -9 16 -8 18 5 13 11
-4 18 1 21 14 3 11 20 27 37 35 42 20 52 21 37 3z m-30 -70 c-7 -9 -15 -13
-17 -11 -7 7 7 26 19 26 6 0 6 -6 -2 -15z m-146 -113 c3 -5 -1 -9 -9 -9 -8 0
-15 4 -15 9 0 4 4 8 9 8 6 0 12 -4 15 -8z m-714 -13 c0 -6 -7 -9 -15 -5 -8 3
-15 1 -15 -5 0 -6 -5 -7 -10 -4 -6 4 -8 11 -5 16 9 13 45 11 45 -2z m60 1 c0
-5 -4 -10 -10 -10 -5 0 -10 5 -10 10 0 6 5 10 10 10 6 0 10 -4 10 -10z m-65
-60 c-3 -5 -12 -10 -18 -10 -7 0 -6 4 3 10 19 12 23 12 15 0z m370 -40 c3 -5
1 -10 -4 -10 -6 0 -11 5 -11 10 0 6 2 10 4 10 3 0 8 -4 11 -10z m-478 -112
c-2 -13 -4 -3 -4 22 0 25 2 35 4 23 2 -13 2 -33 0 -45z m850 7 c26 -13 66 -25
88 -26 22 -2 45 -6 50 -10 6 -4 14 -7 20 -7 5 0 11 -5 13 -10 4 -13 -53 -25
-107 -23 -65 2 -154 64 -128 90 14 14 7 15 64 -14z m-1962 -5 c3 -5 1 -10 -4
-10 -6 0 -11 5 -11 10 0 6 2 10 4 10 3 0 8 -4 11 -10z m1589 -15 c-4 -8 -8
-15 -10 -15 -2 0 -4 7 -4 15 0 8 4 15 10 15 5 0 7 -7 4 -15z m191 -15 c3 -5 1
-10 -4 -10 -6 0 -11 5 -11 10 0 6 2 10 4 10 3 0 8 -4 11 -10z m-333 -43 c22
-22 27 -32 17 -35 -21 -7 -46 -36 -42 -49 3 -7 -4 -10 -19 -6 -18 4 -20 3 -8
-6 12 -9 11 -11 -7 -11 -16 0 -21 -4 -17 -15 4 -8 1 -15 -4 -15 -6 0 -14 -10
-18 -22 -6 -19 -8 -20 -18 -6 -6 8 -17 13 -23 11 -7 -3 -13 3 -13 11 0 9 -5
24 -11 34 -8 13 -4 30 15 75 37 83 87 95 148 34z m-1412 -10 c-10 -9 -11 -9
-6 0 3 6 2 14 -4 18 -5 3 -10 11 -10 16 0 6 7 3 16 -6 14 -13 14 -19 4 -28z
m1800 8 c11 -13 10 -14 -4 -9 -9 3 -16 10 -16 15 0 13 6 11 20 -6z m-1758 -49
c-4 -7 -8 -4 -10 7 -2 9 -8 15 -13 12 -5 -3 -6 2 -2 11 6 16 7 16 19 -1 7 -10
10 -23 6 -29z m1922 -5 c41 -25 119 -40 241 -48 55 -3 101 -7 103 -8 8 -7
-102 -75 -125 -77 -16 -1 -63 6 -106 16 -75 17 -79 19 -117 71 -53 72 -53 80
4 46z m-1874 -68 c0 -6 -5 -15 -12 -19 -6 -4 -8 -3 -5 3 3 5 -2 23 -13 40 -10
17 -16 34 -13 37 8 7 43 -44 43 -61z m1826 -47 c-5 -21 -3 -24 16 -21 29 6 69
-5 62 -16 -3 -5 4 -9 15 -9 12 0 21 -5 21 -11 0 -8 5 -8 15 1 12 10 16 9 21
-3 3 -9 12 -18 20 -21 12 -5 12 -2 3 17 -11 21 -10 21 16 -3 16 -14 25 -19 21
-12 -4 6 -3 12 3 12 5 0 11 -5 13 -12 5 -14 39 -20 53 -8 6 5 26 1 48 -10 20
-10 37 -14 37 -9 0 5 8 9 18 9 13 0 14 -2 3 -9 -8 -5 -10 -14 -6 -21 5 -8 4
-11 -2 -7 -6 4 -13 -2 -16 -13 -6 -25 -36 -37 -47 -20 -7 11 -14 11 -32 3 -13
-5 -34 -8 -48 -5 -14 3 -46 6 -73 6 -38 1 -46 4 -42 16 5 12 4 13 -6 3 -7 -7
-30 -13 -50 -13 -49 0 -79 36 -79 94 0 43 9 86 17 86 3 0 2 -11 -1 -24z m-642
-13 c-4 -10 -8 -28 -8 -40 -1 -13 -3 -23 -6 -23 -11 0 -7 -125 3 -132 7 -4 6
-12 -2 -22 -19 -22 -23 -20 -49 20 -19 29 -22 45 -19 102 3 63 5 68 33 81 16
8 31 18 32 23 2 4 8 8 14 8 6 0 7 -7 2 -17z m686 13 c0 -2 -7 -6 -15 -10 -8
-3 -15 -1 -15 4 0 6 7 10 15 10 8 0 15 -2 15 -4z m-130 -136 c15 -8 127 -33
292 -65 9 -2 39 -14 65 -26 26 -12 50 -23 53 -23 3 -1 24 -15 47 -31 41 -29
53 -45 33 -45 -15 0 -83 33 -99 48 -14 14 -23 13 -79 -9 -30 -12 -37 -11 -85
15 -71 39 -129 68 -141 70 -6 1 -35 14 -65 29 l-53 26 5 -27 c5 -22 2 -28 -14
-29 -10 -1 -19 5 -19 13 0 8 6 14 13 14 9 0 8 3 -2 9 -10 6 -10 10 -1 16 9 6
9 10 -1 16 -20 13 27 12 51 -1z m-796 -16 c3 -8 2 -12 -4 -9 -6 3 -10 2 -10
-4 0 -5 8 -15 18 -20 9 -6 12 -11 6 -11 -21 0 -25 -32 -7 -54 17 -20 17 -20
-1 -6 -11 8 -17 10 -13 3 4 -6 3 -22 -2 -35 -9 -21 -10 -21 -11 -3 -1 11 -4
36 -6 55 -9 67 13 128 30 84z m436 -25 c0 -6 -4 -7 -10 -4 -5 3 -10 11 -10 16
0 6 5 7 10 4 6 -3 10 -11 10 -16z m-93 -25 c-9 -9 -28 6 -21 18 4 6 10 6 17
-1 6 -6 8 -13 4 -17z m279 -12 c1 -16 11 -42 23 -59 20 -26 22 -39 18 -94 -5
-63 -55 -245 -56 -202 -1 12 -5 24 -10 28 -6 3 -8 14 -6 25 2 11 -1 20 -8 20
-8 0 -8 3 1 12 15 15 16 32 2 23 -7 -4 -8 20 -4 72 4 43 7 99 8 124 1 26 7 54
15 63 17 20 16 21 17 -12z m-159 -32 c7 -38 4 -68 -10 -110 l-15 -45 -1 38
c-1 20 3 37 8 37 4 0 7 10 5 23 -12 88 -13 112 -1 92 6 -11 12 -27 14 -35z
m363 16 c0 -3 -4 -8 -10 -11 -5 -3 -10 -1 -10 4 0 6 5 11 10 11 6 0 10 -2 10
-4z m-485 -26 c3 -5 1 -10 -4 -10 -6 0 -11 5 -11 10 0 6 2 10 4 10 3 0 8 -4
11 -10z m505 -9 c0 -4 -5 -12 -12 -19 -8 -8 -9 -12 -1 -12 6 0 14 6 16 13 4 9
8 8 16 -3 9 -13 11 -13 11 2 0 23 35 12 59 -18 12 -16 21 -20 28 -13 7 7 15 1
24 -20 8 -17 20 -31 28 -31 11 0 11 -3 0 -17 -12 -17 -12 -17 5 -1 17 15 14
44 -4 33 -4 -3 -10 4 -13 16 -5 17 -3 18 11 7 35 -26 48 -44 44 -57 -3 -10 0
-12 11 -8 11 4 14 2 11 -7 -3 -8 -1 -17 5 -21 6 -3 11 2 12 12 0 14 2 13 10
-6 6 -15 15 -21 24 -17 9 3 15 0 15 -10 0 -8 -4 -12 -10 -9 -5 3 -10 1 -10 -4
0 -6 -4 -11 -10 -11 -5 0 -9 3 -7 8 2 8 -7 12 -25 12 -7 0 -5 -5 5 -11 9 -6
15 -14 12 -19 -6 -10 36 -1 52 12 7 5 14 5 18 -2 4 -6 1 -9 -7 -8 -7 2 -12 -5
-12 -14 1 -9 -4 -14 -11 -12 -7 3 -16 1 -20 -5 -3 -6 2 -11 12 -11 15 0 15 -2
3 -9 -8 -6 -18 -7 -24 -4 -5 4 -7 -1 -3 -10 3 -10 2 -17 -3 -17 -6 0 -10 6
-10 13 0 6 -8 21 -16 32 -15 19 -15 18 -8 -10 4 -16 7 -38 6 -47 0 -10 4 -18
9 -18 6 0 5 -8 -1 -20 l-11 -21 -39 22 c-22 13 -42 31 -46 41 -6 19 -44 26
-44 8 0 -5 6 -10 14 -10 8 0 13 -8 12 -17 -1 -13 6 -18 22 -17 12 0 22 -3 22
-8 0 -4 -5 -8 -11 -8 -16 0 -36 -24 -31 -38 2 -8 -4 -11 -20 -8 -12 2 -22 9
-20 15 1 6 -4 11 -12 11 -8 0 -16 3 -18 8 -8 19 -92 81 -98 72 -4 -6 -13 -5
-24 3 -16 12 -16 13 6 12 12 0 29 -4 35 -8 9 -6 11 -3 7 7 -3 9 -10 16 -14 16
-13 0 -18 49 -6 54 6 2 4 5 -5 5 -11 1 -16 11 -17 31 0 17 3 28 8 25 5 -3 11
-1 15 5 4 6 11 8 16 5 5 -4 9 -2 9 3 0 16 -13 22 -25 12 -8 -6 -18 -5 -31 6
-10 8 -13 12 -5 8 9 -5 12 -3 7 4 -4 7 -15 12 -24 12 -13 0 -14 2 -4 9 7 4 12
14 10 22 -2 8 3 13 10 11 8 -1 11 2 8 7 -3 5 -16 7 -29 4 -12 -3 -18 -1 -12 4
6 4 13 12 16 16 12 14 81 -54 74 -72 -5 -13 -4 -13 6 -4 10 10 8 21 -9 52 -27
47 -27 46 -2 48 11 1 20 -2 20 -6z m-829 -84 c-10 -9 -11 -8 -5 6 3 10 9 15
12 12 3 -3 0 -11 -7 -18z m273 -41 c21 -23 54 -60 73 -83 20 -24 40 -43 46
-43 16 0 87 -84 78 -93 -10 -10 -61 9 -61 23 0 6 -4 9 -8 6 -5 -3 -15 6 -22
19 -8 15 -22 25 -36 25 -27 0 -116 115 -122 157 -2 15 -9 34 -15 43 -22 28 24
-10 67 -54z m203 -28 c-2 -7 0 -21 5 -32 6 -10 12 -28 13 -40 2 -11 7 -32 11
-45 5 -16 4 -22 -4 -17 -14 9 -45 115 -38 132 7 17 19 19 13 2z m-469 -62 c12
-4 22 -14 22 -21 0 -8 6 -12 14 -9 9 3 17 -3 21 -15 3 -12 11 -21 16 -21 6 0
7 -4 4 -10 -3 -5 -2 -10 3 -10 10 0 156 -140 207 -200 43 -49 142 -140 152
-140 5 0 20 -13 33 -29 14 -15 30 -26 36 -24 7 2 14 0 18 -5 3 -5 -5 -8 -17
-7 -33 3 -47 -5 -47 -27 0 -14 5 -18 15 -14 8 3 15 1 15 -4 0 -6 6 -10 13 -10
8 0 22 -9 31 -19 17 -19 15 -18 -38 1 -31 11 -53 25 -50 29 3 5 -1 6 -9 3 -20
-7 -33 16 -16 27 9 7 5 7 -13 3 -23 -5 -29 -2 -40 22 -23 49 -89 103 -127 104
-28 0 -43 10 -88 58 -115 121 -136 141 -144 136 -11 -6 -50 56 -43 68 3 4 -2
8 -10 8 -9 0 -17 9 -17 20 -1 11 -2 26 -3 33 -1 6 -7 17 -13 22 -10 8 -11 38
-4 73 1 2 13 -5 29 -16 15 -11 37 -23 50 -26z m770 -126 c-22 -30 -35 -41 -22
-17 9 16 36 47 41 47 2 0 -6 -13 -19 -30z m-184 -6 c5 -14 4 -15 -9 -4 -17 14
-19 20 -6 20 5 0 12 -7 15 -16z m436 -14 c0 -5 -2 -10 -4 -10 -3 0 -8 5 -11
10 -3 6 -1 10 4 10 6 0 11 -4 11 -10z m609 -9 c8 -14 7 -20 -4 -24 -10 -4 -12
-1 -8 10 4 11 2 14 -5 9 -8 -5 -10 -2 -6 8 8 21 11 20 23 -3z m-1143 -5 c3 -8
12 -12 20 -9 8 3 14 0 14 -6 0 -6 7 -11 15 -11 8 0 15 -4 15 -8 0 -5 24 -16
53 -25 28 -10 63 -27 77 -38 14 -11 19 -18 13 -14 -7 3 -13 1 -13 -4 0 -6 7
-11 15 -11 8 0 15 -4 15 -10 0 -6 -9 -6 -25 0 -14 5 -25 6 -25 2 0 -4 -4 -1
-9 7 -7 11 -14 11 -40 -2 -23 -12 -39 -13 -57 -7 -27 11 -33 22 -6 14 14 -5
15 -4 2 5 -9 6 -18 7 -24 1 -6 -6 -19 -2 -35 13 -31 28 -81 51 -81 37 0 -15
-132 -12 -153 4 -17 13 -15 15 20 27 47 17 43 16 133 19 41 1 69 4 63 7 -16 6
-17 23 -3 23 6 0 13 -6 16 -14z m508 -15 c-6 -6 -34 -11 -34 -6 0 2 3 10 6 19
5 12 9 13 19 3 7 -7 11 -14 9 -16z m-1441 -42 c-6 -6 -9 -18 -6 -25 3 -8 0
-14 -6 -14 -6 0 -11 5 -11 10 0 14 23 50 29 44 3 -2 0 -9 -6 -15z m18 -72
c-10 -9 -11 -8 -5 6 3 10 9 15 12 12 3 -3 0 -11 -7 -18z m1169 -16 c0 -21 -13
-4 -17 22 -2 17 -1 19 7 7 5 -8 10 -21 10 -29z m-872 -91 c80 -110 132 -149
282 -207 52 -20 99 -40 103 -44 5 -4 0 -16 -12 -28 -12 -12 -17 -21 -13 -21 4
0 13 5 20 12 9 9 12 8 12 -4 0 -9 8 -18 18 -21 9 -2 4 -4 -13 -4 -16 -1 -43
-6 -58 -12 -41 -16 -50 -14 -92 19 -27 21 -49 30 -75 30 -37 0 -78 29 -63 44
5 4 2 6 -6 4 -8 -1 -20 7 -26 19 -7 13 -15 20 -18 16 -6 -6 -11 20 -8 40 2 11
-14 8 -28 -5 -11 -11 -12 -8 -6 12 7 22 6 23 -7 12 -13 -10 -17 -10 -22 3 -4
11 -13 14 -25 10 -18 -5 -61 23 -61 41 0 3 16 12 36 20 l36 15 -25 27 c-24 26
-47 86 -47 126 0 16 4 15 26 -10 14 -16 46 -58 72 -94z m1372 66 c0 -3 -4 -8
-10 -11 -5 -3 -10 -1 -10 4 0 6 5 11 10 11 6 0 10 -2 10 -4z m-1667 -71 c-3
-9 -8 -14 -10 -11 -3 3 -2 9 2 15 9 16 15 13 8 -4z m2586 -106 c-19 -11 -24
-3 -8 14 8 9 16 11 18 5 2 -6 -3 -14 -10 -19z m-1609 -10 c0 -5 -4 -7 -10 -4
-5 3 -10 1 -10 -4 0 -6 -4 -11 -10 -11 -5 0 -7 7 -4 15 7 17 34 21 34 4z
m1350 -39 c-6 -11 -12 -20 -14 -20 -2 0 -2 9 1 20 3 11 9 20 15 20 5 0 4 -9
-2 -20z m-1282 -25 c-3 -3 -9 2 -12 12 -6 14 -5 15 5 6 7 -7 10 -15 7 -18z
m565 -42 c-3 -7 -6 -13 -8 -13 -2 0 -5 6 -8 13 -3 8 1 14 8 14 7 0 11 -6 8
-14z m714 10 c-4 -3 -1 -13 6 -22 11 -14 10 -14 -5 -2 -16 12 -16 31 -1 31 4
0 3 -3 0 -7z m-2086 -50 c36 -19 55 -35 56 -48 1 -16 1 -16 -3 -2 -3 9 -10 14
-16 11 -7 -4 -8 -2 -4 4 4 7 2 12 -3 12 -6 0 -11 -7 -11 -15 0 -8 4 -15 9 -15
10 0 24 -30 17 -37 -12 -13 -116 67 -128 99 -11 27 18 23 83 -9z m499 -13 c20
-16 22 -20 8 -20 -10 0 -18 5 -18 10 0 6 -3 9 -7 9 -19 -3 -33 2 -33 11 0 16
23 11 50 -10z m-651 -41 c-20 -12 -22 -4 -7 20 11 18 14 19 16 5 2 -9 -2 -20
-9 -25z m2189 24 c-9 -10 -13 -24 -11 -30 7 -18 -4 -16 -11 2 -3 8 2 21 10 30
21 21 31 19 12 -2z m-1948 -27 c0 -15 -18 -31 -26 -23 -7 7 7 37 17 37 5 0 9
-6 9 -14z m35 -14 c-3 -3 -11 0 -18 7 -9 10 -8 11 6 5 10 -3 15 -9 12 -12z
m125 -27 c6 -4 8 -10 6 -14 -4 -6 67 -7 209 -2 33 2 62 2 65 1 11 -3 77 -11
115 -14 22 -1 50 -8 61 -14 12 -6 23 -9 25 -7 3 2 21 0 42 -4 20 -5 37 -6 37
-2 0 4 9 7 20 8 11 1 20 -2 20 -6 0 -9 17 -11 75 -10 112 1 150 1 155 -1 3 -2
16 -3 30 -4 14 -1 30 -4 35 -7 6 -4 20 -5 33 -4 12 1 22 -1 22 -5 0 -3 17 -5
39 -4 21 1 80 -9 131 -22 51 -13 97 -21 101 -18 5 3 9 0 9 -6 0 -6 4 -9 9 -6
17 11 273 -84 313 -116 67 -53 87 -123 47 -166 -11 -12 -17 -27 -13 -34 4 -7
3 -8 -5 -4 -6 4 -18 2 -26 -4 -10 -8 -29 -9 -57 -4 -24 4 -55 8 -69 9 -14 1
-31 5 -39 10 -7 4 -31 9 -54 10 -97 5 -199 47 -260 106 -17 16 -33 29 -37 29
-4 0 -9 8 -11 18 -3 10 -27 33 -54 51 l-49 32 -119 -5 c-117 -5 -120 -5 -183
25 -34 16 -63 32 -63 35 0 3 5 2 12 -2 6 -4 8 -3 5 3 -11 17 -90 14 -125 -4
-26 -15 -36 -15 -52 -5 -24 15 -33 15 -25 2 3 -5 0 -10 -9 -10 -8 0 -17 6 -19
13 -3 6 -6 3 -6 -7 -1 -19 -1 -19 -15 -1 -8 11 -19 16 -30 12 -11 -4 -19 -1
-23 11 -9 21 -44 51 -61 52 -9 0 -10 -5 -4 -17 5 -10 7 -24 5 -30 -3 -9 5 -13
23 -13 15 0 24 -3 21 -7 -13 -12 -98 -3 -114 12 -8 8 -20 15 -26 15 -7 0 -26
17 -44 37 -17 21 -35 34 -39 30 -5 -4 -2 -12 6 -17 12 -8 12 -10 2 -10 -8 0
-16 8 -19 18 -3 13 -13 18 -33 17 -20 -1 -27 2 -23 12 4 9 0 11 -11 7 -11 -4
-19 2 -26 17 -10 23 -10 23 -7 -4 3 -15 2 -25 -1 -22 -3 2 -11 0 -19 -6 -9 -9
-13 -8 -13 0 0 6 6 11 13 12 6 0 2 5 -10 11 -25 12 -30 34 -11 40 14 5 104 -8
118 -17z m1644 12 c7 -7 11 -18 8 -25 -3 -10 -8 -8 -18 5 -23 30 -15 46 10 20z
m-50 -22 c-4 -8 -8 -15 -10 -15 -2 0 -4 7 -4 15 0 8 4 15 10 15 5 0 7 -7 4
-15z m-61 -33 c-10 -10 -20 -17 -22 -16 -6 5 20 34 30 34 5 0 1 -8 -8 -18z
m-1733 -8 c0 -8 -5 -12 -10 -9 -6 4 -8 11 -5 16 9 14 15 11 15 -7z m57 2 c-5
-14 -47 -17 -47 -3 0 6 11 12 25 12 14 0 24 -4 22 -9z m1933 -116 c0 -5 -2
-10 -4 -10 -3 0 -8 5 -11 10 -3 6 -1 10 4 10 6 0 11 -4 11 -10z m-130 -65 c9
5 11 4 6 -3 -11 -18 -36 -14 -36 6 0 13 2 14 9 3 5 -8 14 -10 21 -6z m17 -37
c-3 -8 -6 -5 -6 6 -1 11 2 17 5 13 3 -3 4 -12 1 -19z m-977 -295 c0 -10 -4
-14 -8 -8 -4 6 -11 13 -16 18 -5 4 -2 7 7 7 10 0 17 -8 17 -17z m755 -33 c3
-5 1 -10 -4 -10 -6 0 -11 5 -11 10 0 6 2 10 4 10 3 0 8 -4 11 -10z m-1254
-257 c-12 -20 -14 -14 -5 12 4 9 9 14 11 11 3 -2 0 -13 -6 -23z m24 -43 c-3
-5 -10 -10 -16 -10 -5 0 -9 5 -9 10 0 6 7 10 16 10 8 0 12 -4 9 -10z m955 -21
c0 -5 4 -7 10 -4 6 3 7 -1 4 -9 -8 -22 -21 -20 -27 4 -3 11 -1 20 4 20 5 0 9
-5 9 -11z m-20 -13 c0 -2 -7 -7 -16 -10 -8 -3 -12 -2 -9 4 6 10 25 14 25 6z
m-865 -26 c3 -5 1 -10 -4 -10 -6 0 -11 5 -11 10 0 6 2 10 4 10 3 0 8 -4 11
-10z m50 -21 c-4 -6 -10 -8 -13 -5 -3 3 -11 1 -18 -5 -7 -6 -19 -7 -25 -3 -9
5 -7 10 7 15 29 11 56 11 49 -2z m39 -28 c3 -5 -1 -11 -9 -14 -9 -4 -12 -1 -8
9 6 16 10 17 17 5z m76 -51 c0 -5 -2 -10 -4 -10 -3 0 -8 5 -11 10 -3 6 -1 10
4 10 6 0 11 -4 11 -10z"/>
<path d="M3520 4075 c0 -5 5 -17 10 -25 5 -8 10 -10 10 -5 0 6 -5 17 -10 25
-5 8 -10 11 -10 5z"/>
<path d="M3540 3865 c7 -8 16 -15 21 -15 5 0 6 7 3 15 -4 8 -13 15 -21 15 -13
0 -13 -3 -3 -15z"/>
<path d="M3620 3779 c0 -5 5 -7 10 -4 6 3 10 8 10 11 0 2 -4 4 -10 4 -5 0 -10
-5 -10 -11z"/>
<path d="M3545 3670 c3 -5 11 -10 16 -10 6 0 7 5 4 10 -3 6 -11 10 -16 10 -6
0 -7 -4 -4 -10z"/>
<path d="M3560 3646 c0 -9 30 -14 35 -6 4 6 -3 10 -14 10 -12 0 -21 -2 -21 -4z"/>
<path d="M3043 3265 c0 -8 4 -15 9 -15 4 0 8 4 8 9 0 6 -4 12 -8 15 -5 3 -9
-1 -9 -9z"/>
<path d="M3102 3224 c-15 -16 11 -39 31 -27 11 7 10 11 -3 24 -13 12 -19 13
-28 3z"/>
<path d="M2620 3110 c0 -5 5 -10 11 -10 5 0 7 5 4 10 -3 6 -8 10 -11 10 -2 0
-4 -4 -4 -10z"/>
<path d="M2476 3007 c3 -10 9 -15 12 -12 3 3 0 11 -7 18 -10 9 -11 8 -5 -6z"/>
<path d="M2820 2854 c0 -6 7 -19 16 -30 14 -18 14 -18 3 6 -14 31 -19 36 -19
24z"/>
<path d="M3713 4769 c-14 -14 -6 -39 14 -39 8 0 11 -5 7 -12 -5 -10 -4 -10 6
-1 7 6 20 9 29 5 14 -5 14 -4 2 11 -11 14 -11 17 0 17 9 0 7 5 -5 12 -15 8
-21 8 -24 0 -2 -7 -8 -12 -13 -12 -4 0 -6 7 -3 15 7 18 2 19 -13 4z"/>
<path d="M3680 4720 c0 -5 5 -10 10 -10 6 0 10 5 10 10 0 6 -4 10 -10 10 -5 0
-10 -4 -10 -10z"/>
<path d="M3867 4649 c7 -7 15 -10 18 -7 3 3 -2 9 -12 12 -14 6 -15 5 -6 -5z"/>
<path d="M3954 4575 c33 -32 69 -58 82 -59 12 0 20 -4 18 -8 -2 -4 0 -9 6 -13
5 -3 10 0 10 7 1 8 6 6 15 -6 8 -11 15 -15 15 -9 0 6 -19 25 -42 42 -24 17
-47 34 -53 38 -5 5 -32 21 -60 37 l-50 28 59 -57z"/>
<path d="M4467 4609 c7 -7 15 -10 18 -7 3 3 -2 9 -12 12 -14 6 -15 5 -6 -5z"/>
<path d="M2900 4590 c0 -5 12 -10 28 -9 24 0 25 1 7 9 -27 12 -35 12 -35 0z"/>
<path d="M4717 4559 c7 -7 15 -10 18 -7 3 3 -2 9 -12 12 -14 6 -15 5 -6 -5z"/>
<path d="M4106 4473 c-6 -14 -5 -15 5 -6 7 7 10 15 7 18 -3 3 -9 -2 -12 -12z"/>
<path d="M4675 4469 c-4 -6 -5 -12 -2 -15 2 -3 7 2 10 11 7 17 1 20 -8 4z"/>
<path d="M2830 4450 c0 -5 5 -10 10 -10 6 0 10 5 10 10 0 6 -4 10 -10 10 -5 0
-10 -4 -10 -10z"/>
<path d="M4170 4432 c0 -4 9 -13 20 -20 11 -7 20 -9 20 -4 0 4 -9 13 -20 20
-11 7 -20 9 -20 4z"/>
<path d="M4667 4380 c-23 -27 -22 -35 4 -37 16 -2 19 1 11 9 -6 6 -8 17 -5 24
6 17 23 19 19 2 -1 -7 -1 -9 2 -5 2 4 10 3 18 -4 8 -6 14 -8 14 -4 0 8 -31 34
-40 35 -3 0 -13 -9 -23 -20z"/>
<path d="M4581 4364 c0 -11 3 -14 6 -6 3 7 2 16 -1 19 -3 4 -6 -2 -5 -13z"/>
<path d="M4535 4348 c3 -15 1 -30 -5 -33 -5 -3 -10 -17 -10 -31 0 -22 2 -23
20 -12 24 15 25 25 5 69 -14 29 -15 30 -10 7z"/>
<path d="M4700 4342 c0 -15 28 -23 36 -9 4 7 4 9 -1 5 -4 -4 -14 -3 -22 3 -8
7 -13 8 -13 1z"/>
<path d="M4569 4305 c-1 -14 -2 -31 -3 -37 -1 -7 -7 -17 -13 -21 -7 -4 -13
-15 -13 -23 0 -8 5 -12 10 -9 6 3 10 1 10 -4 0 -6 8 -11 18 -11 10 0 13 -3 6
-8 -12 -8 -15 -44 -3 -37 3 3 13 -3 20 -12 10 -12 10 -14 2 -9 -21 12 -15 -2
22 -58 19 -29 35 -59 35 -66 0 -6 6 -10 14 -7 26 10 26 -22 1 -69 -18 -34 -24
-60 -23 -99 1 -30 4 -52 7 -50 3 2 5 -20 4 -48 -4 -82 1 -94 41 -94 32 0 34 2
25 24 -5 14 -5 23 1 23 6 0 10 5 10 11 0 5 -4 8 -8 5 -5 -3 -9 11 -10 30 -1
19 2 32 7 29 5 -2 11 2 15 10 3 8 1 15 -5 15 -6 0 -7 5 -4 10 4 6 12 7 18 3 7
-4 6 0 -2 10 -7 9 -17 15 -21 12 -15 -9 -16 30 -1 41 8 6 16 29 18 50 9 102 9
144 1 144 -5 0 -8 6 -7 13 1 6 0 21 -1 32 -2 17 -3 16 -9 -5 -7 -24 -8 -23
-19 15 -7 22 -8 41 -4 43 4 1 6 20 4 42 -4 36 -2 39 14 33 11 -3 17 -4 14 -2
-50 42 -47 42 -42 8 4 -24 1 -30 -9 -27 -8 3 -15 10 -15 16 -5 49 -5 48 -14
27 -6 -14 -9 -16 -10 -5 -2 8 -2 19 -1 23 1 5 -3 6 -8 3 -14 -9 -41 4 -41 20
0 17 17 18 23 2 3 -10 8 -10 18 1 9 9 9 11 2 7 -7 -4 -13 -2 -13 5 0 6 -8 9
-20 6 -11 -3 -20 -1 -20 4 0 22 -20 7 -21 -16z"/>
<path d="M3230 4310 c0 -5 5 -10 11 -10 5 0 7 5 4 10 -3 6 -8 10 -11 10 -2 0
-4 -4 -4 -10z"/>
<path d="M4250 4070 c0 -5 5 -10 11 -10 5 0 7 5 4 10 -3 6 -8 10 -11 10 -2 0
-4 -4 -4 -10z"/>
<path d="M2987 4049 c7 -7 15 -10 18 -7 3 3 -2 9 -12 12 -14 6 -15 5 -6 -5z"/>
<path d="M4250 4035 c7 -9 15 -13 17 -11 7 7 -7 26 -19 26 -6 0 -6 -6 2 -15z"/>
<path d="M4899 3783 c-1 -10 -1 -24 0 -30 1 -7 -3 -13 -9 -13 -5 0 -10 -5 -10
-11 0 -5 5 -7 11 -3 6 3 4 -5 -6 -19 -10 -17 -13 -27 -6 -32 6 -3 11 -11 11
-16 0 -6 -4 -8 -8 -5 -4 2 -13 -8 -20 -24 -11 -24 -11 -34 4 -62 9 -18 22 -36
28 -40 12 -8 18 -48 7 -48 -4 0 -12 5 -19 12 -25 25 -11 -2 16 -32 21 -23 34
-29 48 -23 17 6 17 5 5 -10 -12 -15 -11 -17 3 -17 22 0 56 18 56 30 0 5 -8 7
-17 5 -10 -3 -6 1 9 8 26 12 27 14 10 30 -15 16 -15 19 -2 27 12 8 10 10 -10
10 -17 0 -21 3 -12 9 11 6 10 11 -3 25 -9 9 -13 16 -8 16 5 0 9 9 9 20 0 13
-5 19 -13 16 -7 -3 -13 -1 -13 3 0 5 6 12 13 14 10 4 10 6 0 6 -7 1 -13 10
-13 21 0 14 -5 18 -17 14 -10 -2 -8 1 5 7 16 9 21 18 16 33 -13 45 -29 74 -46
85 -15 9 -18 8 -19 -6z"/>
<path d="M1158 3535 c-2 -1 -45 -5 -96 -9 -177 -13 -185 -16 -291 -124 -51
-52 -112 -105 -135 -117 -22 -12 -46 -32 -52 -44 -37 -74 -212 -188 -329 -215
-16 -4 -40 -14 -53 -22 l-22 -15 22 -32 c13 -18 26 -33 31 -35 4 -2 7 -10 7
-17 0 -7 4 -15 9 -17 5 -1 23 -25 40 -53 17 -27 34 -48 37 -47 3 2 9 0 12 -4
4 -4 1 -4 -5 0 -19 10 -16 -8 9 -66 20 -48 21 -51 4 -63 -16 -12 -16 -14 6
-29 25 -18 42 -21 33 -6 -12 19 10 9 34 -15 13 -14 32 -25 43 -25 18 0 18 -1
3 -16 -22 -22 -7 -36 65 -59 30 -10 63 -25 73 -33 17 -15 17 -16 -3 -24 -43
-16 -4 -32 140 -61 41 -8 124 -34 184 -57 60 -23 125 -44 143 -47 52 -9 116
15 214 78 115 74 217 116 311 129 40 6 96 22 124 35 48 23 132 103 180 170 12
17 24 27 28 24 11 -11 29 -223 28 -331 -2 -106 -4 -120 -41 -253 -14 -50 -20
-103 -20 -184 -1 -132 -23 -261 -57 -339 -32 -73 -32 -110 2 -122 46 -18 99
-12 140 16 21 15 53 31 71 36 18 5 50 29 75 57 24 27 61 58 82 69 22 12 32 22
24 25 -9 3 -8 9 7 22 13 10 14 15 5 12 -8 -2 -21 2 -28 9 -10 11 -10 14 -1 14
7 0 20 7 30 16 16 15 17 14 12 -7 -5 -16 -3 -20 6 -14 10 6 12 0 6 -23 -6 -28
-4 -30 17 -25 13 3 36 17 52 32 40 36 103 135 111 174 4 18 11 47 17 65 9 31
12 33 41 26 18 -3 63 -19 100 -35 37 -16 65 -23 61 -17 -5 7 -2 9 7 6 10 -4
15 1 15 12 0 10 -5 16 -11 13 -5 -4 -2 2 7 13 16 18 18 23 18 44 0 6 5 10 11
10 8 0 7 -6 -2 -17 -13 -16 -12 -17 4 -4 10 8 15 21 12 29 -4 12 -3 12 9 3 11
-9 15 -8 20 5 4 9 4 19 1 22 -3 3 -5 0 -5 -7 0 -7 -4 -9 -10 -6 -6 4 -5 13 3
26 12 19 12 19 29 -3 l17 -23 -6 23 c-3 13 -1 22 6 22 6 0 11 4 11 10 0 5 -10
8 -22 6 -13 -3 -23 -5 -23 -6 0 -1 -15 -3 -32 -5 -18 -1 -33 1 -33 6 0 8 15
13 32 10 14 -2 -3 25 -23 37 -19 12 -19 11 -9 -8 7 -13 7 -20 0 -20 -5 0 -10
5 -10 10 0 6 -4 10 -10 10 -14 0 -12 -27 3 -33 6 -3 2 -6 -10 -6 -13 -1 -23
-7 -23 -15 0 -8 -5 -18 -11 -22 -11 -7 -10 13 3 56 3 8 3 12 1 8 -3 -5 -9 -8
-14 -8 -12 0 -11 37 1 45 6 4 7 11 4 17 -4 7 -10 5 -16 -6 -9 -16 -29 -23 -27
-8 4 21 -3 24 -17 6 -15 -18 -15 -18 -4 3 5 12 15 25 20 28 19 12 11 26 -9 16
-15 -8 -20 -7 -24 8 -6 24 -54 33 -73 14 -12 -13 -14 -11 -14 12 0 15 -4 24
-10 20 -5 -3 -10 -2 -10 3 0 5 -6 9 -12 9 -7 0 -25 4 -41 8 -23 6 -26 4 -21
-9 3 -9 1 -16 -5 -16 -15 0 -13 21 4 44 8 11 15 31 15 45 0 19 -3 22 -9 12 -7
-12 -14 -10 -36 7 -25 20 -26 21 -8 39 21 21 19 55 -3 46 -8 -3 -14 -13 -15
-22 0 -10 -2 -11 -6 -3 -2 6 -9 10 -14 6 -5 -3 -9 -2 -8 3 4 16 -14 43 -28 43
-12 0 -14 -8 -10 -35 3 -19 2 -35 -4 -35 -5 0 -9 6 -9 13 -1 16 -48 50 -60 42
-6 -4 -10 10 -10 34 0 22 -4 51 -9 65 -8 19 -4 36 16 78 14 29 38 87 52 128
l26 76 -65 31 c-36 17 -79 34 -97 37 -38 9 -58 37 -62 91 -6 83 -121 260 -204
312 -128 81 -333 155 -481 172 -106 13 -175 19 -178 16z m22 -152 c0 -7 -4
-13 -9 -13 -5 0 -11 6 -14 13 -3 8 1 14 9 14 8 0 14 -6 14 -14z m30 -14 c0 -6
-4 -7 -10 -4 -5 3 -10 11 -10 16 0 6 5 7 10 4 6 -3 10 -11 10 -16z m113 -6
c-7 -2 -19 -2 -25 0 -7 3 -2 5 12 5 14 0 19 -2 13 -5z m17 -23 c0 -5 -5 -10
-11 -10 -5 0 -7 5 -4 10 3 6 8 10 11 10 2 0 4 -4 4 -10z m40 -8 c0 -5 -7 -9
-15 -9 -8 0 -15 4 -15 9 0 4 7 8 15 8 8 0 15 -4 15 -8z m-338 -135 c-8 -9 -8
-17 0 -27 8 -12 9 -12 4 3 -3 9 -3 17 0 17 14 0 44 -22 44 -32 0 -6 -7 -5 -17
3 -15 11 -14 10 1 -9 19 -22 19 -22 -3 -22 -12 0 -19 4 -16 10 3 6 0 10 -8 10
-8 0 -17 10 -20 22 -7 24 -1 38 15 38 7 0 7 -4 0 -13z m-36 -399 c5 -8 2 -9
-9 -5 -10 3 -17 2 -17 -3 0 -6 -4 -10 -10 -10 -5 0 -7 7 -4 15 7 18 30 20 40
3z m-106 -2 c0 -2 -7 -7 -16 -10 -8 -3 -12 -2 -9 4 6 10 25 14 25 6z m240 -6
c0 -5 -4 -10 -10 -10 -5 0 -10 5 -10 10 0 6 5 10 10 10 6 0 10 -4 10 -10z m60
6 c0 -2 -7 -7 -16 -10 -8 -3 -12 -2 -9 4 6 10 25 14 25 6z m274 -31 c-4 -8 -8
-15 -10 -15 -2 0 -4 7 -4 15 0 8 4 15 10 15 5 0 7 -7 4 -15z m-19 -45 c-3 -5
-12 -10 -18 -10 -7 0 -6 4 3 10 19 12 23 12 15 0z m-1085 -80 c0 -5 -5 -10
-11 -10 -5 0 -7 5 -4 10 3 6 8 10 11 10 2 0 4 -4 4 -10z m1892 -208 c5 9 8 8
8 -6 0 -13 -5 -17 -19 -13 -12 3 -21 -1 -23 -9 -2 -8 -7 -4 -14 10 -11 23 -10
24 14 15 18 -7 28 -6 34 3z m38 -52 c0 -5 -5 -10 -11 -10 -5 0 -7 5 -4 10 3 6
8 10 11 10 2 0 4 -4 4 -10z m46 -2 c3 -4 -3 -11 -15 -17 -17 -9 -20 -8 -18 8
1 18 19 22 33 9z m-96 -13 c0 -8 -2 -15 -4 -15 -2 0 -6 7 -10 15 -3 8 -1 15 4
15 6 0 10 -7 10 -15z m45 -23 c-3 -3 -15 -6 -27 -7 -20 -2 -20 -1 -3 11 17 13
43 9 30 -4z m-328 -84 c-3 -8 -6 -5 -6 6 -1 11 2 17 5 13 3 -3 4 -12 1 -19z
m473 -8 c0 -5 -5 -10 -11 -10 -5 0 -7 5 -4 10 3 6 8 10 11 10 2 0 4 -4 4 -10z
m63 -25 c-3 -9 -8 -14 -10 -11 -3 3 -2 9 2 15 9 16 15 13 8 -4z m47 -20 c0 -5
-5 -3 -10 5 -5 8 -10 20 -10 25 0 6 5 3 10 -5 5 -8 10 -19 10 -25z m-515 -55
c3 -5 1 -10 -4 -10 -6 0 -11 5 -11 10 0 6 2 10 4 10 3 0 8 -4 11 -10z m536
-59 c-9 -6 -21 -5 -32 2 -16 10 -16 12 -1 23 14 10 20 10 32 -2 13 -13 13 -16
1 -23z m106 -66 c9 -24 -1 -27 -15 -5 -8 13 -8 20 -2 20 6 0 13 -7 17 -15z
m-643 -239 c-9 -25 -23 -51 -32 -58 -13 -11 -14 -11 -8 1 5 8 3 17 -5 23 -11
8 -11 9 3 5 10 -4 18 1 21 14 3 10 1 19 -4 19 -5 0 -1 9 8 20 27 32 33 24 17
-24z m-34 -86 c0 -5 -4 -10 -10 -10 -5 0 -10 5 -10 10 0 6 5 10 10 10 6 0 10
-4 10 -10z m93 -121 c-10 -9 -29 -20 -43 -24 -19 -5 -21 -4 -10 4 13 10 13 11
0 11 -12 1 -11 3 3 11 10 6 25 8 34 5 12 -5 14 -1 10 14 -5 18 -3 19 9 9 13
-11 13 -15 -3 -30z m-253 -59 c0 -5 -4 -10 -10 -10 -5 0 -10 5 -10 10 0 6 5
10 10 10 6 0 10 -4 10 -10z"/>
<path d="M4355 3530 c3 -5 8 -10 11 -10 2 0 4 5 4 10 0 6 -5 10 -11 10 -5 0
-7 -4 -4 -10z"/>
<path d="M4382 3518 c-7 -7 -12 -16 -12 -21 0 -5 7 -1 16 8 9 9 14 18 12 20
-2 3 -10 -1 -16 -7z"/>
<path d="M4418 3507 c3 -12 7 -16 10 -9 2 7 8 9 14 6 6 -4 9 -1 6 6 -2 7 -11
14 -20 16 -11 1 -14 -4 -10 -19z"/>
<path d="M4235 3501 c-3 -5 -1 -12 5 -16 5 -3 10 1 10 9 0 18 -6 21 -15 7z"/>
<path d="M4335 3499 c-4 -6 -5 -12 -2 -15 2 -3 7 2 10 11 7 17 1 20 -8 4z"/>
<path d="M4086 3405 c-3 -8 -1 -15 4 -15 6 0 10 7 10 15 0 8 -2 15 -4 15 -2 0
-6 -7 -10 -15z"/>
<path d="M4996 3401 c-4 -7 -5 -15 -2 -18 9 -9 19 4 14 18 -4 11 -6 11 -12 0z"/>
<path d="M3995 3351 c-3 -5 -1 -12 5 -16 5 -3 10 1 10 9 0 18 -6 21 -15 7z"/>
<path d="M4576 3235 c-9 -26 -7 -32 5 -12 6 10 9 21 6 23 -2 3 -7 -2 -11 -11z"/>
<path d="M4960 3219 c0 -5 5 -7 10 -4 6 3 10 8 10 11 0 2 -4 4 -10 4 -5 0 -10
-5 -10 -11z"/>
<path d="M4870 3190 c0 -5 7 -10 16 -10 8 0 12 5 9 10 -3 6 -10 10 -16 10 -5
0 -9 -4 -9 -10z"/>
<path d="M3906 3178 c3 -5 10 -6 15 -3 13 9 11 12 -6 12 -8 0 -12 -4 -9 -9z"/>
<path d="M3477 3155 c3 -8 9 -12 14 -9 12 7 11 11 -5 17 -10 4 -13 1 -9 -8z"/>
<path d="M4783 3133 c-15 -5 -17 -23 -4 -23 5 0 11 7 15 15 3 8 4 15 3 14 -1
0 -8 -3 -14 -6z"/>
<path d="M3880 3121 c0 -5 7 -11 14 -14 10 -4 13 -1 9 9 -6 15 -23 19 -23 5z"/>
<path d="M3437 3099 c7 -7 15 -10 18 -7 3 3 -2 9 -12 12 -14 6 -15 5 -6 -5z"/>
<path d="M3950 3020 c-8 -5 -12 -11 -9 -14 2 -3 11 -1 19 4 8 5 12 11 9 14 -2
3 -11 1 -19 -4z"/>
<path d="M5005 3020 c-22 -5 -52 -14 -66 -22 -29 -15 -65 -48 -52 -48 4 0 3
-4 -2 -8 -16 -11 -35 -60 -29 -76 3 -8 1 -17 -5 -21 -6 -3 -11 -1 -11 6 0 7
-2 10 -5 7 -3 -3 2 -24 10 -47 13 -39 13 -42 0 -37 -13 4 -13 2 -5 -14 13 -25
13 -30 -4 -24 -10 4 -14 -2 -12 -25 1 -17 -3 -33 -8 -35 -6 -2 -3 -5 6 -5 9
-1 19 3 23 9 3 5 13 6 22 3 15 -6 16 -5 3 9 -8 8 -21 13 -27 11 -7 -3 -13 0
-13 6 0 6 11 10 24 9 14 -1 22 -6 20 -10 -3 -4 -1 -8 5 -8 5 0 12 14 16 30 4
17 11 30 16 30 5 0 8 10 6 23 -1 17 2 21 17 19 17 -3 18 -2 7 12 -12 15 -8 20
12 17 4 0 6 2 5 7 -3 14 14 62 23 62 5 0 9 7 9 14 0 8 11 27 25 42 14 15 25
31 25 35 0 5 12 15 28 23 l27 15 -25 0 c-14 -1 -43 -5 -65 -9z"/>
<path d="M3340 2968 c0 -4 4 -8 9 -8 6 0 12 4 15 8 3 5 -1 9 -9 9 -8 0 -15 -4
-15 -9z"/>
<path d="M2255 2810 c4 -13 2 -20 -5 -18 -7 2 -15 -4 -17 -12 -4 -13 -3 -13 5
-1 8 11 11 9 15 -10 4 -23 4 -23 6 -1 0 12 6 22 12 22 8 0 9 4 0 13 -6 8 -8
17 -4 20 3 4 1 7 -6 7 -8 0 -10 -7 -6 -20z"/>
<path d="M2287 2799 c6 -23 9 -24 16 -5 3 8 0 17 -7 19 -10 4 -12 -1 -9 -14z"/>
<path d="M2221 2734 c13 -16 29 -19 29 -5 0 5 -9 11 -21 14 -16 4 -18 3 -8 -9z"/>
<path d="M2276 2734 c-9 -24 -2 -26 12 -4 7 11 8 20 3 20 -5 0 -12 -7 -15 -16z"/>
<path d="M4948 2603 c6 -2 18 -2 25 0 6 3 1 5 -13 5 -14 0 -19 -2 -12 -5z"/>
<path d="M2335 2420 c-3 -6 4 -9 19 -8 13 1 22 6 20 10 -7 11 -32 10 -39 -2z"/>
<path d="M2725 2221 c-3 -12 -11 -19 -16 -16 -5 4 -9 -3 -9 -14 0 -12 4 -21 8
-21 9 0 34 61 28 68 -2 2 -7 -6 -11 -17z"/>
<path d="M3665 2004 c-6 -2 -37 -29 -69 -60 -32 -30 -72 -62 -88 -70 -26 -13
-28 -17 -16 -32 12 -15 11 -16 -5 -3 -14 11 -23 11 -40 3 -12 -6 -49 -16 -82
-22 -33 -7 -70 -17 -83 -23 -23 -11 -22 -12 20 -34 61 -32 102 -28 216 17 54
22 104 40 109 40 14 0 61 107 68 153 6 37 -1 43 -30 31z m-185 -183 c0 -8 -53
-32 -69 -31 -3 1 5 10 18 20 24 21 51 26 51 11z"/>
<path d="M2681 1874 c0 -11 3 -14 6 -6 3 7 2 16 -1 19 -3 4 -6 -2 -5 -13z"/>
<path d="M3106 1865 c3 -6 13 -11 23 -11 11 0 17 6 14 12 -3 7 -13 12 -23 11
-10 0 -16 -6 -14 -12z"/>
<path d="M4440 1816 c-14 -8 -76 -40 -139 -71 -111 -56 -135 -63 -214 -64
l-38 -1 -46 -96 c-84 -179 -154 -224 -264 -174 -79 35 -207 19 -210 -28 -3
-34 3 -48 42 -106 21 -33 39 -65 39 -72 0 -8 12 -16 28 -20 15 -3 32 -7 39 -9
6 -2 14 -1 17 2 3 3 45 5 94 5 82 0 91 2 123 29 28 23 32 30 21 41 -11 11 -12
10 -7 -4 4 -11 -1 -20 -15 -28 -20 -10 -21 -10 -16 8 4 13 1 22 -9 25 -8 4
-12 13 -9 21 3 8 1 16 -3 19 -15 9 -12 -31 3 -43 7 -7 11 -16 8 -21 -6 -11
-73 73 -67 84 3 5 11 0 19 -10 13 -16 14 -16 8 0 -4 11 -1 17 10 17 9 0 16 5
16 10 0 13 -17 13 -25 0 -4 -6 -11 -7 -17 -4 -7 4 -6 9 2 14 7 4 9 13 6 19 -4
6 -12 9 -17 6 -5 -4 -9 -1 -9 4 0 6 9 11 20 11 11 0 20 -4 20 -10 0 -5 8 -10
18 -10 11 0 26 -8 36 -18 12 -14 29 -18 69 -17 28 1 52 3 52 5 0 1 14 3 30 5
17 1 38 6 48 10 12 5 17 3 17 -9 0 -9 7 -16 17 -16 15 0 15 1 0 18 -21 23 -21
28 -1 36 12 5 15 2 10 -10 -4 -11 -2 -15 8 -11 16 6 16 -23 0 -38 -6 -5 -14
-20 -17 -32 -4 -17 -1 -23 11 -23 15 0 15 -2 2 -10 -13 -8 -13 -11 -1 -19 8
-5 10 -14 6 -21 -5 -9 -4 -11 3 -6 7 4 12 1 12 -9 0 -11 5 -15 16 -11 9 4 13
2 8 -5 -4 -6 0 -15 7 -20 11 -7 10 -9 -3 -9 -10 0 -18 -4 -18 -10 0 -5 5 -10
10 -10 6 0 10 -7 10 -16 0 -9 -5 -12 -12 -8 -6 4 -8 3 -4 -4 3 -6 15 -9 26 -7
12 2 18 0 16 -4 -3 -4 11 -15 31 -25 19 -9 33 -20 29 -23 -3 -4 -12 -1 -18 5
-7 7 -19 12 -28 12 -8 -1 1 -8 21 -18 20 -9 44 -24 54 -32 15 -12 17 -12 10
-1 -5 10 -4 12 3 7 7 -4 12 -16 12 -27 0 -17 3 -18 23 -8 21 12 21 11 4 -8
-20 -23 -12 -36 14 -22 16 8 19 6 19 -12 0 -16 -4 -20 -17 -14 -13 4 -15 3 -7
-5 6 -6 20 -13 30 -15 11 -1 18 -7 17 -13 -1 -5 4 -16 12 -22 9 -8 15 -8 15
-2 0 6 -6 13 -12 15 -9 4 -8 6 3 6 16 1 39 -17 39 -32 0 -4 -6 -5 -12 -1 -9 5
-9 3 1 -9 7 -9 18 -14 24 -10 6 3 7 1 3 -5 -4 -6 0 -24 8 -39 15 -27 17 -26
20 9 0 10 4 17 7 15 4 -1 17 7 29 18 22 20 22 20 37 0 15 -19 15 -19 8 4 -5
16 -4 21 4 17 6 -4 11 -3 11 3 0 15 -18 23 -25 11 -4 -6 -11 -8 -16 -5 -5 4
-9 1 -9 -4 0 -6 -4 -11 -9 -11 -5 0 -7 9 -4 20 3 11 9 17 14 14 5 -3 19 2 31
11 23 17 23 17 -12 11 -29 -5 -31 -4 -12 4 13 5 31 17 40 26 15 15 15 17 -2
29 -10 8 -16 21 -13 32 4 16 5 16 6 -2 1 -18 2 -18 14 4 15 29 37 39 37 16 0
-9 -3 -14 -7 -12 -5 3 -8 -11 -9 -31 l-1 -37 14 30 c14 32 9 85 -10 117 -10
15 -9 21 3 28 13 9 13 12 -3 24 -10 8 -15 20 -11 30 3 9 1 16 -5 16 -6 0 -11
-5 -11 -11 0 -5 -5 -7 -10 -4 -8 5 -8 11 -1 19 8 9 4 16 -14 26 -13 7 -22 17
-19 22 3 4 10 5 16 2 6 -4 9 -1 7 5 -3 7 -9 13 -14 14 -6 0 -18 11 -28 24 -10
13 -25 23 -33 23 -8 0 -14 7 -14 17 0 15 1 15 18 0 10 -10 22 -15 25 -12 4 3
5 2 2 -2 -3 -3 7 -12 21 -19 18 -10 31 -11 45 -4 22 13 26 25 4 16 -8 -3 -15
-1 -15 4 0 6 6 10 12 10 7 0 1 8 -12 17 -14 9 -27 18 -30 20 -2 2 2 8 10 13
14 9 2 14 -17 8 -13 -5 -20 56 -9 72 9 13 9 13 -5 2 -9 -7 -24 -10 -33 -6 -18
7 -22 24 -6 24 6 0 10 4 10 9 0 13 -38 2 -43 -13 -2 -6 -2 0 0 12 2 13 0 21
-6 18 -5 -3 -12 1 -15 10 -6 15 -4 15 18 0 21 -13 45 -15 141 -11 121 6 188
24 204 54 7 13 4 16 -14 16 -16 0 -20 -3 -14 -11 6 -8 4 -14 -7 -18 -10 -4
-21 -1 -26 6 -11 18 -10 28 3 28 6 0 9 7 5 15 -4 12 0 12 21 -2 15 -10 24 -13
20 -7 -7 11 41 39 51 29 3 -3 0 -5 -6 -5 -7 0 -12 -4 -12 -8 0 -8 52 -6 98 4
33 7 29 45 -9 69 -16 11 -35 19 -42 17 -7 -2 -9 0 -4 4 9 10 -63 85 -75 78 -5
-3 -7 -2 -6 3 2 4 -10 20 -25 35 -15 15 -27 23 -27 17 0 -6 -7 -6 -20 1 -23
12 -103 15 -148 5 -18 -3 -32 -3 -32 2 0 14 -94 13 -120 -1z m410 -91 c11 -13
10 -14 -4 -9 -9 3 -16 10 -16 15 0 13 6 11 20 -6z m-326 -67 c11 -12 29 -48
23 -48 -1 0 -15 14 -30 30 -27 28 -20 45 7 18z m433 -50 c-3 -8 -8 -4 -15 12
-6 14 -11 19 -11 11 -1 -8 -4 -12 -7 -8 -3 3 -3 11 1 17 10 16 39 -13 32 -32z
m-207 -37 c0 -5 -7 -12 -16 -15 -14 -5 -15 -4 -4 9 14 17 20 19 20 6z m4 -36
c8 -21 -28 -39 -44 -21 -9 11 -7 17 7 25 24 14 30 14 37 -4z m-509 -52 c4 -10
9 -31 10 -48 2 -16 1 -22 -2 -12 -2 9 -9 17 -15 17 -5 0 -7 7 -4 16 4 9 1 23
-5 30 -7 9 -8 14 -1 14 5 0 13 -8 17 -17z m103 -138 c10 -14 32 -65 32 -73 0
-4 -4 -1 -9 7 -7 10 -12 10 -30 -5 -11 -10 -21 -25 -21 -34 0 -13 -2 -13 -10
0 -5 9 -5 19 1 26 7 9 5 18 -9 32 -23 23 -35 52 -21 52 6 0 8 4 4 9 -3 5 -7
24 -9 42 l-4 33 35 -39 c19 -22 37 -44 41 -50z m-155 -46 c-6 -6 -9 -19 -6
-28 5 -13 3 -14 -7 -4 -11 10 -11 15 0 28 7 8 15 15 18 15 3 0 1 -5 -5 -11z
m226 -89 c11 -24 11 -24 -3 -6 -9 11 -16 24 -16 30 0 12 5 7 19 -24z m36 -70
c-3 -5 -2 -10 4 -10 6 0 7 -7 4 -17 -4 -10 -2 -14 4 -10 6 4 13 -5 15 -23 3
-20 0 -30 -9 -30 -7 0 -14 5 -14 10 -2 15 -4 23 -13 47 -7 21 -2 43 10 43 3 0
2 -4 -1 -10z m193 -92 c-2 -6 -10 -14 -16 -16 -7 -2 -10 2 -6 12 7 18 28 22
22 4z m-148 -12 c0 -11 -19 -15 -25 -6 -3 5 1 10 9 10 9 0 16 -2 16 -4z m2
-48 c-7 -7 -12 -8 -12 -2 0 14 12 26 19 19 2 -3 -1 -11 -7 -17z m21 -48 c3
-11 2 -20 -3 -20 -4 0 -10 11 -12 25 -6 29 7 25 15 -5z m12 -40 c3 -5 1 -10
-4 -10 -6 0 -11 5 -11 10 0 6 2 10 4 10 3 0 8 -4 11 -10z m3 -51 c-3 -8 -7 -3
-11 10 -4 17 -3 21 5 13 5 -5 8 -16 6 -23z"/>
<path d="M2760 1768 c0 -5 10 -8 23 -8 12 0 33 -3 46 -7 21 -5 23 -4 11 8 -13
15 -80 20 -80 7z"/>
<path d="M2888 1748 c-7 -17 6 -31 57 -63 29 -18 30 -18 15 0 -14 17 -13 18 3
12 9 -4 17 -2 17 4 0 7 -9 9 -22 6 -27 -8 -49 9 -41 31 4 14 3 14 -5 3 -8 -11
-11 -10 -14 5 -3 17 -4 17 -10 2z"/>
<path d="M2985 1670 c-3 -6 1 -13 10 -16 21 -9 26 -2 10 13 -9 8 -16 9 -20 3z"/>
<path d="M4590 1401 c0 -6 4 -13 10 -16 6 -3 7 1 4 9 -7 18 -14 21 -14 7z"/>
<path d="M3915 1300 c3 -5 8 -10 11 -10 2 0 4 5 4 10 0 6 -5 10 -11 10 -5 0
-7 -4 -4 -10z"/>
<path d="M3985 1280 c-3 -6 1 -7 9 -4 18 7 21 14 7 14 -6 0 -13 -4 -16 -10z"/>
<path d="M4611 1267 c2 -1 12 -9 22 -16 14 -12 17 -11 17 3 0 10 -8 16 -22 16
-12 0 -19 -1 -17 -3z"/>
<path d="M3552 1142 c-18 -15 -46 -37 -62 -50 -17 -13 -28 -27 -25 -32 3 -5
49 -6 103 -3 72 4 100 9 110 21 17 23 15 29 -10 27 -35 -3 -48 5 -48 28 0 20
0 20 -15 1 -14 -19 -14 -19 -16 1 -1 11 -1 23 0 28 2 11 -1 9 -37 -21z m25
-29 c-3 -3 -10 -2 -16 2 -7 4 -7 10 2 20 10 11 13 11 15 -2 2 -8 1 -17 -1 -20z
m78 -41 c-3 -3 -11 0 -18 7 -9 10 -8 11 6 5 10 -3 15 -9 12 -12z"/>
<path d="M3631 1144 c0 -11 3 -14 6 -6 3 7 2 16 -1 19 -3 4 -6 -2 -5 -13z"/>
<path d="M4640 1155 c0 -2 10 -10 23 -16 20 -11 21 -11 8 4 -13 16 -31 23 -31
12z"/>
<path d="M4675 1110 c3 -5 8 -10 11 -10 2 0 4 5 4 10 0 6 -5 10 -11 10 -5 0
-7 -4 -4 -10z"/>
<path d="M3712 1084 c-7 -8 -8 -14 -3 -14 10 0 25 19 20 25 -2 1 -10 -3 -17
-11z"/>
<path d="M4553 759 c-2 -17 1 -18 12 -9 8 7 12 16 9 21 -9 16 -20 10 -21 -12z"/>
</g>
</svg>
